<?xml version="1.0" encoding="UTF-8"?>
<!DOCTYPE svg PUBLIC "-//W3C//DTD SVG 1.1//EN" "http://www.w3.org/Graphics/SVG/1.1/DTD/svg11.dtd">
<!-- Creator: CorelDRAW 2020 (64-Bit) -->
<svg xmlns="http://www.w3.org/2000/svg" xml:space="preserve" width="6165px" height="790px" version="1.1" shape-rendering="geometricPrecision" text-rendering="geometricPrecision" image-rendering="optimizeQuality" fill-rule="evenodd" clip-rule="evenodd"
viewBox="0 0 1021.23 130.86"
 xmlns:xlink="http://www.w3.org/1999/xlink"
 xmlns:xodm="http://www.corel.com/coreldraw/odm/2003">
 <g id="Layer_x0020_1">
  <metadata id="CorelCorpID_0Corel-Layer"/>
  <path fill="#000" d="M83.35 0l96.21 0c16.64,0 23.42,14.29 15.69,28.35l-9.02 16.39 -10.74 -0.04 -28.72 -0.18 -45.21 54.25c-1.52,1.82 -3.56,2.77 -5.92,2.78l-16.68 0.04c-2.38,0.01 -4.43,-0.9 -6.06,-2.64 -1.63,-1.73 -2.39,-3.82 -2.26,-6.2l1.73 -31.66 -29.87 0 10.01 -18.18c9.05,0 24.53,0.01 36.38,0.02 2.38,0 4.44,0.89 6.08,2.62 1.64,1.74 2.41,3.84 2.28,6.22l-1.39 25.32 38.51 -47.42c1.41,-1.73 3.55,-2.33 5.78,-2.31l47.62 0.42 1.5 -2.72c5.51,-10.03 1.15,-18.23 -9.71,-18.23l-96.21 0c-10.85,0 -24.25,8.2 -29.77,18.23l-44.41 80.74c-5.52,10.03 -1.15,18.23 9.7,18.23l96.21 0c10.86,0 24.25,-8.2 29.77,-18.23l28.95 -52.63 7.78 0.02 -30.75 55.9c-6.55,11.91 -22.06,21.77 -35.75,21.77l-96.21 0c-16.63,0 -23.42,-14.29 -15.69,-28.35l44.42 -80.74c6.55,-11.91 22.06,-21.77 35.75,-21.77z"/>
  <path fill="#000" fill-rule="nonzero" d="M225.88 106.16c-5.4,-0.04 -7.87,-2.52 -7.37,-7.45l7 -74.69 26.87 0 -4.68 49.55 50.33 -45.01c3.41,-3.04 7.33,-4.54 11.89,-4.54l20.06 0 -83.51 74.69c-5.54,4.93 -11.02,7.41 -16.47,7.45l-4.12 0z"/>
  <path fill="#000" fill-rule="nonzero" d="M290.61 106.16c-3.09,0 -4.97,-1.21 -5.67,-3.62 -0.34,-1.56 -0.15,-3.3 0.6,-5.2 0.33,-0.84 0.78,-1.74 1.35,-2.7l35.82 -59.1c1.82,-2.99 4.32,-5.57 7.52,-7.8 3.7,-2.48 7.08,-3.72 10.17,-3.72l87.02 0 -14.48 23.84 -73.89 0 -3.03 5 38.04 0c5.77,0 10.7,3.3 12.9,8.63l6.32 15.32 -71.78 0 -3.34 5.52 73.88 0 -14.42 23.83 -87.01 0z"/>
  <path fill="#000" fill-rule="nonzero" d="M506.91 63.48c-2.24,3.75 -5.53,6.94 -9.85,9.58 -4.17,2.66 -8.17,4.01 -11.94,4.01l-19.24 0 15.18 29.09 -25.92 0c-7.1,0 -13.17,-3.87 -16.17,-10.3l-8.77 -18.79 14.51 -23.95 46.34 0 3.24 -5.32 -51.73 0 -35.38 58.36 -23.84 0 42.81 -70.62c1.84,-3.03 4.35,-5.63 7.55,-7.86 3.68,-2.44 7.05,-3.66 10.14,-3.66l73.44 0c3.75,0 6.13,1.31 7.16,3.95 0.76,1.96 0.64,4.19 -0.35,6.71 -0.36,0.92 -0.83,1.86 -1.42,2.85l-15.76 25.95z"/>
  <path fill="#000" fill-rule="nonzero" d="M537.31 27.56c3.57,-2.36 6.89,-3.54 9.98,-3.54l20.87 0c29.21,0 57.3,-0.71 86.37,-0.6 6.4,0.02 13.27,0.05 20.45,0.08 -1.44,1.02 -2.83,2.13 -4.15,3.31l-23.47 20.99 -27.45 0 -15.82 0 -58.08 0 -3.23 5.32 60.37 0c3.7,0 6.08,1.31 7.09,3.95 0.76,1.95 0.64,4.18 -0.35,6.7 -0.36,0.92 -0.82,1.88 -1.4,2.86l-15.79 26.02c-2.24,3.69 -5.49,6.88 -9.79,9.56 -4.24,2.64 -8.24,3.95 -11.97,3.95l-84.15 0 9.53 -15.74c3.12,-5.17 8.31,-8.09 14.35,-8.09l64.43 0 3.22 -5.26 -60.43 0c-3.72,0 -6.07,-1.33 -7.09,-3.95 -0.79,-1.92 -0.69,-4.11 0.29,-6.59 0.36,-0.92 0.86,-1.9 1.5,-2.93l17.01 -28.06c1.82,-2.99 4.33,-5.59 7.55,-7.86l0.16 -0.12zm170.26 -3.92c42.98,0.19 87.72,0.38 104.66,0.38 6.62,0 12.3,3.33 15.55,9.1 3.25,5.77 3.13,12.35 -0.3,18.01l-18.96 31.2 50.05 0 35.38 -58.31 23.84 0 -41.62 68.63c-2.23,3.69 -5.43,6.86 -9.64,9.5 -4.26,2.68 -8.28,4.01 -12.06,4.01l-70.69 0c-3.7,0 -6.08,-1.29 -7.17,-3.89 -0.7,-2 -0.57,-4.22 0.41,-6.71 0.38,-0.96 0.86,-1.93 1.44,-2.91l27.19 -44.85 -42.6 0 -35.4 58.36 -23.88 0 35.39 -58.36 -31.46 0 1.48 -15.74c0.31,-3.34 -0.28,-6.18 -1.61,-8.42z"/>
  <path fill="#000" fill-rule="nonzero" d="M695.58 24.02c5.4,0.04 7.87,2.53 7.38,7.45l-7.01 74.69 -26.86 0 4.67 -49.54 -50.12 44.81c-3.54,3.17 -7.63,4.73 -12.39,4.73l-19.76 0 83.51 -74.69c5.53,-4.92 11.01,-7.41 16.46,-7.45l4.12 0z"/>
  <path fill="#000" fill-rule="nonzero" d="M924.23 27.56c3.57,-2.36 6.89,-3.54 9.98,-3.54l87.02 0 -14.4 23.78 -73.9 0 -3.23 5.32 60.38 0c3.69,0 6.07,1.31 7.08,3.95 0.76,1.95 0.64,4.18 -0.35,6.7 -0.36,0.92 -0.82,1.88 -1.4,2.86l-15.79 26.02c-2.24,3.69 -5.49,6.88 -9.78,9.56 -4.25,2.64 -8.25,3.95 -11.98,3.95l-84.15 0 9.53 -15.74c3.13,-5.17 8.31,-8.09 14.35,-8.09l64.43 0 3.22 -5.26 -60.43 0c-3.71,0 -6.07,-1.33 -7.09,-3.95 -0.79,-1.92 -0.69,-4.11 0.29,-6.59 0.36,-0.92 0.86,-1.9 1.5,-2.93l17.01 -28.06c1.82,-2.99 4.33,-5.59 7.55,-7.86l0.16 -0.12z"/>
 </g>
</svg>
